<?xml version="1.0" encoding="UTF-8"?>
<!DOCTYPE svg PUBLIC "-//W3C//DTD SVG 1.1//EN" "http://www.w3.org/Graphics/SVG/1.1/DTD/svg11.dtd">
<svg xmlns="http://www.w3.org/2000/svg" version="1.1" width="212px" height="120px" style="shape-rendering:geometricPrecision; text-rendering:geometricPrecision; image-rendering:optimizeQuality; fill-rule:evenodd; clip-rule:evenodd" xmlns:xlink="http://www.w3.org/1999/xlink">
<rect width="100%" height="100%" fill="white" />

<g><path style="opacity:1" fill="#51a2d8" d="M 197.5,1.5 C 201.702,2.18005 205.036,4.34672 207.5,8C 202.908,7.08446 198.574,7.91779 194.5,10.5C 195.893,7.65337 196.893,4.65337 197.5,1.5 Z"/></g>
<g><path style="opacity:1" fill="#ec5a0e" d="M 183.5,-0.5 C 187.5,-0.5 191.5,-0.5 195.5,-0.5C 195.5,0.166667 195.5,0.833333 195.5,1.5C 188.551,1.44995 182.885,4.11661 178.5,9.5C 177.659,8.07363 176.659,6.74029 175.5,5.5C 177.884,3.11528 180.55,1.11528 183.5,-0.5 Z"/></g>
<g><path style="opacity:1" fill="#4882c3" d="M 195.5,1.5 C 196.167,1.5 196.833,1.5 197.5,1.5C 196.893,4.65337 195.893,7.65337 194.5,10.5C 192.167,11.8333 189.833,13.1667 187.5,14.5C 187.034,10.838 187.701,7.50464 189.5,4.5C 191.5,3.5 193.5,2.5 195.5,1.5 Z"/></g>
<g><path style="opacity:1" fill="#e93814" d="M 175.5,5.5 C 176.659,6.74029 177.659,8.07363 178.5,9.5C 175.335,13.8227 172.669,18.4893 170.5,23.5C 168.938,16.5302 170.604,10.5302 175.5,5.5 Z"/></g>
<g><path style="opacity:1" fill="#3d60aa" d="M 189.5,4.5 C 187.701,7.50464 187.034,10.838 187.5,14.5C 185.5,17.1667 183.167,19.5 180.5,21.5C 180.5,18.1667 180.5,14.8333 180.5,11.5C 182.637,8.02696 185.637,5.69363 189.5,4.5 Z"/></g>
<g><path style="opacity:0.976" fill="#4985c5" d="M 202.5,11.5 C 202.5,15.8333 202.5,20.1667 202.5,24.5C 197.809,24.7547 193.476,26.088 189.5,28.5C 189.5,25.1667 189.5,21.8333 189.5,18.5C 193.091,14.9356 197.425,12.6023 202.5,11.5 Z"/></g>
<g><path style="opacity:1" fill="#58b3e5" d="M 202.5,11.5 C 204.857,11.3367 207.19,11.5034 209.5,12C 210.085,13.3024 210.751,14.469 211.5,15.5C 211.5,18.5 211.5,21.5 211.5,24.5C 208.646,24.8821 205.646,24.8821 202.5,24.5C 202.5,20.1667 202.5,15.8333 202.5,11.5 Z"/></g>
<g><path style="opacity:0.987" fill="#3954a2" d="M 189.5,18.5 C 189.5,21.8333 189.5,25.1667 189.5,28.5C 185.185,30.6602 181.185,33.3269 177.5,36.5C 176.618,35.2402 175.618,34.0736 174.5,33C 178.708,27.2911 183.708,22.4577 189.5,18.5 Z"/></g>
<g><path style="opacity:1" fill="#324094" d="M 180.5,11.5 C 180.5,14.8333 180.5,18.1667 180.5,21.5C 178.417,24.6508 176.084,27.6508 173.5,30.5C 172.155,29.6533 171.155,28.4866 170.5,27C 172.973,21.2061 176.306,16.0394 180.5,11.5 Z"/></g>
<g><path style="opacity:0.941" fill="#21398f" d="M -0.5,65.5 C -0.5,52.8333 -0.5,40.1667 -0.5,27.5C 2.12095,25.8742 3.95428,26.5409 5,29.5C 5.33333,34.8333 5.66667,40.1667 6,45.5C 16.8733,38.7502 25.8733,40.7502 33,51.5C 37.1596,63.6769 33.3262,72.1769 21.5,77C 11.2185,78.6934 3.88516,74.8601 -0.5,65.5 Z M 13.5,47.5 C 27.0416,48.244 31.2082,54.9107 26,67.5C 18.2681,73.4908 11.6014,72.4908 6,64.5C 3.65993,56.5248 6.15993,50.8582 13.5,47.5 Z"/></g>
<g><path style="opacity:0.958" fill="#ed6f09" d="M 193.5,40.5 C 192.167,36.8333 192.167,33.1667 193.5,29.5C 197.998,27.7225 202.665,27.2225 207.5,28C 207.957,28.414 208.291,28.914 208.5,29.5C 205.119,35.3587 200.119,39.0253 193.5,40.5 Z"/></g>
<g><path style="opacity:0.864" fill="#e94512" d="M 193.5,29.5 C 192.167,33.1667 192.167,36.8333 193.5,40.5C 188.501,40.96 183.834,39.96 179.5,37.5C 183.534,33.8135 188.201,31.1468 193.5,29.5 Z"/></g>
<g><path style="opacity:0.94" fill="#21398f" d="M 53.5,41.5 C 63.0159,41.0052 69.8492,45.0052 74,53.5C 74.8141,61.4128 74.6474,69.2462 73.5,77C 70.7019,77.5608 68.8686,76.3941 68,73.5C 55.9464,80.5953 46.6131,77.9286 40,65.5C 37.5243,53.4419 42.0243,45.4419 53.5,41.5 Z M 54.5,47.5 C 65.3206,47.4879 69.8206,52.8212 68,63.5C 63.8074,71.7249 57.6407,73.5582 49.5,69C 44.1667,62.6667 44.1667,56.3333 49.5,50C 51.3146,49.2432 52.9812,48.4098 54.5,47.5 Z"/></g>
<g><path style="opacity:0.901" fill="#21398f" d="M 92.5,41.5 C 98.265,40.9772 103.265,42.6439 107.5,46.5C 117.695,38.5966 125.862,40.2633 132,51.5C 132.667,59.8333 132.667,68.1667 132,76.5C 130.062,77.8602 128.396,77.5268 127,75.5C 126.667,67.8333 126.333,60.1667 126,52.5C 123.017,47.4319 118.851,46.2652 113.5,49C 112.299,49.9025 111.465,51.0692 111,52.5C 110.667,60.1667 110.333,67.8333 110,75.5C 108.933,77.2826 107.433,77.7826 105.5,77C 104.683,69.2457 104.183,61.4124 104,53.5C 99.8143,46.4616 94.8143,45.7949 89,51.5C 88.6667,59.1667 88.3333,66.8333 88,74.5C 86,78.5 84,78.5 82,74.5C 81.1367,66.4357 81.47,58.4357 83,50.5C 85.2557,46.47 88.4223,43.47 92.5,41.5 Z"/></g>
<g><path style="opacity:0.931" fill="#21398f" d="M 150.5,41.5 C 160.679,40.1717 167.846,44.1717 172,53.5C 172.814,61.4128 172.647,69.2462 171.5,77C 168.702,77.5608 166.869,76.3941 166,73.5C 150.475,81.1564 140.642,76.4898 136.5,59.5C 137.852,50.7414 142.519,44.7414 150.5,41.5 Z M 151.5,47.5 C 165.042,48.244 169.208,54.9107 164,67.5C 156.235,73.5388 149.569,72.5388 144,64.5C 141.66,56.5248 144.16,50.8582 151.5,47.5 Z"/></g>
<g><path style="opacity:0.801" fill="#ee710d" d="M 129.5,86.5 C 126.933,88.2346 126.933,90.2346 129.5,92.5C 128.167,93.8333 126.833,93.8333 125.5,92.5C 124.933,90.0177 124.266,87.6843 123.5,85.5C 123.91,83.1457 124.91,81.1457 126.5,79.5C 127.355,81.955 128.355,84.2883 129.5,86.5 Z"/></g>
<g><path style="opacity:0.717" fill="#ee710d" d="M 105.5,83.5 C 107.912,83.244 109.579,84.244 110.5,86.5C 109.975,87.1924 109.308,87.6924 108.5,88C 110.658,89.3117 110.991,90.9783 109.5,93C 107.231,93.7581 105.064,93.5914 103,92.5C 103.141,90.5377 102.974,88.7043 102.5,87C 103.071,85.4009 104.071,84.2342 105.5,83.5 Z M 104.5,90.5 C 105.497,89.2875 106.497,89.4542 107.5,91C 106.423,91.4696 105.423,91.3029 104.5,90.5 Z"/></g>
<g><path style="opacity:0.831" fill="#ed710d" d="M 123.5,85.5 C 123.119,86.9311 122.119,87.7645 120.5,88C 123.266,88.6912 123.933,90.1912 122.5,92.5C 120.579,93.641 118.579,93.8077 116.5,93C 116.298,90.2325 116.298,87.3991 116.5,84.5C 119.005,83.3284 121.339,83.6617 123.5,85.5 Z"/></g>
<g><path style="opacity:0.79" fill="#ee710d" d="M 139.5,89.5 C 140.833,88.5 140.833,87.5 139.5,86.5C 139.414,85.5041 139.748,84.6708 140.5,84C 144.209,84.3757 147.876,84.3757 151.5,84C 153.673,86.8924 154.006,90.059 152.5,93.5C 150.976,91.5175 149.976,89.1841 149.5,86.5C 148.526,88.7427 148.192,91.076 148.5,93.5C 147.5,93.5 146.5,93.5 145.5,93.5C 144.938,84.4304 143.605,84.4304 141.5,93.5C 139.889,92.6798 139.222,91.3464 139.5,89.5 Z"/></g>
<g><path style="opacity:0.833" fill="#ed710d" d="M 139.5,86.5 C 139.5,87.5 139.5,88.5 139.5,89.5C 138.228,93.2538 135.561,94.4204 131.5,93C 129.984,91.103 129.317,88.9363 129.5,86.5C 132.833,82.5 136.167,82.5 139.5,86.5 Z"/></g>
<g><path style="opacity:0.959" fill="#f0750c" d="M 111.5,81.5 C 112.5,81.5 113.5,81.5 114.5,81.5C 114.5,85.5 114.5,89.5 114.5,93.5C 113.5,93.5 112.5,93.5 111.5,93.5C 111.5,89.5 111.5,85.5 111.5,81.5 Z"/></g>
<g><path style="opacity:0.606" fill="#ee710d" d="M 157.5,83.5 C 160.561,83.4443 162.728,84.7776 164,87.5C 166.402,82.6855 169.235,82.3521 172.5,86.5C 171.975,87.1924 171.308,87.6924 170.5,88C 172.283,89.0665 172.783,90.5665 172,92.5C 169.358,94.0586 167.025,93.7253 165,91.5C 162.53,93.4865 159.697,93.9865 156.5,93C 153.765,89.5083 154.098,86.3417 157.5,83.5 Z M 166.5,90.5 C 167.497,89.2875 168.497,89.4542 169.5,91C 168.423,91.4696 167.423,91.3029 166.5,90.5 Z M 157.5,86.5 C 161.161,86.3501 162.161,87.8501 160.5,91C 157.241,90.9181 156.241,89.4181 157.5,86.5 Z"/></g>
</svg>
